<svg width="28" height="28" viewBox="0 0 28 28" fill="none" xmlns="http://www.w3.org/2000/svg">
<path d="M10.0703 14.7881C17.2053 10.0534 20.8627 23.5243 24.9398 25.8583C17.3252 30.8599 14.1474 18.5227 10.0703 14.7881Z" fill="#FFA927"/>
<path fill-rule="evenodd" clip-rule="evenodd" d="M27.0355 13.5177C27.0355 16.9804 25.7335 20.1389 23.5925 22.5306C23.4108 22.2724 23.2275 22.0112 23.0426 21.7477L23.0426 21.7477C22.1668 20.4994 21.2557 19.201 20.3149 17.9444C21.1456 16.6716 21.6284 15.151 21.6284 13.5177C21.6284 9.03835 17.9971 5.40709 13.5177 5.40709C9.03835 5.40709 5.40709 9.03835 5.40709 13.5177C5.40709 17.4261 8.17152 20.6887 11.8517 21.4571L9.06446 26.2848C3.78673 24.444 0 19.4231 0 13.5177C0 6.05209 6.05209 0 13.5177 0C20.9834 0 27.0355 6.05209 27.0355 13.5177ZM10.1273 26.6067C11.2107 26.8866 12.3468 27.0355 13.5177 27.0355C14.8087 27.0355 16.0574 26.8545 17.2398 26.5165C15.8644 25.1388 14.6718 23.4229 13.5356 21.6283L13.5177 21.6284C13.3474 21.6284 13.1783 21.6231 13.0105 21.6128L10.1273 26.6067Z" fill="url(#paint0_linear_896_1596)"/>
<defs>
<linearGradient id="paint0_linear_896_1596" x1="13.5177" y1="0" x2="13.5177" y2="27.0355" gradientUnits="userSpaceOnUse">
<stop stop-color="#9327FF"/>
<stop offset="1" stop-color="#FFA927"/>
</linearGradient>
</defs>
</svg>
